<svg width="551" height="556" viewBox="0 0 551 556" version="1.1" xmlns="http://www.w3.org/2000/svg" xmlns:xlink="http://www.w3.org/1999/xlink">
<g id="Canvas" transform="translate(-1096 689)">
<g id="logo_02">
<g id="Shape 1 copy 5">
<use xlink:href="#path0_fill" transform="translate(1096 -386.744)" fill="#33CCCC"/>
<use xlink:href="#path0_fill" transform="translate(1096 -386.744)" fill="url(#paint1_linear)"/>
</g>
<g id="Shape 1 copy 5">
<use xlink:href="#path1_fill" transform="translate(1131.44 -342.928)" fill="#FFFFFF"/>
</g>
<g id="Shape 1 copy 5">
<use xlink:href="#path2_fill" transform="translate(1101.36 -689)" fill="#333333"/>
</g>
</g>
</g>
<defs>
<linearGradient id="paint1_linear" x1="0" y1="0" x2="1" y2="0" gradientUnits="userSpaceOnUse" gradientTransform="matrix(-69.4324 419.772 -880.644 -145.954 705.443 72.977)">
<stop offset="0.47231" stop-color="#00CCCC"/>
<stop offset="1" stop-color="#3399FF"/>
</linearGradient>
<path id="path0_fill" fill-rule="evenodd" d="M 523.87 105.897C 531.9 117.407 532.71 135.546 524.18 149.608C 516.57 162.165 470.99 210.351 456.16 225.835C 443.31 239.284 425.95 252.748 408.87 252.748L 51.24 252.748C 2.91001 252.748 1.95312e-05 236.348 1.95312e-05 199.258L 1.95312e-05 48.824C 1.95312e-05 10.948 11.1599 -1.12305e-05 44.1699 -1.12305e-05L 408.87 -1.12305e-05C 425.95 -1.12305e-05 441.15 8.73201 458.61 26.494C 473.42 41.574 517.71 97.041 523.87 105.897Z"/>
<path id="path1_fill" fill-rule="evenodd" d="M 45.6322 14.3572L 45.6322 13.3672C 45.6322 8.52723 45.2222 3.74822 37.3122 3.74822L 7.42219 3.74822C 0.47219 3.74822 0.0321754 7.59422 0.0321754 13.5682L 0.0321754 53.3262C 14.5822 32.4972 30.7122 22.8222 45.6322 14.3572ZM 246.132 158.017L 246.132 155.883L 246.152 155.883L 246.152 60.1882C 246.152 20.0596 228.526 -0.00242324 193.272 0.00224343C 183.507 -0.087486 173.91 2.53965 165.552 7.5902C 157.162 12.6522 149.102 19.7225 141.372 28.8012C 137.572 18.9345 131.839 11.6679 124.172 7.00121C 116.506 2.33454 106.579 0.00120583 94.3922 0.00120583C 80.2722 0.00120583 63.8721 4.94921 52.2421 14.5272C 49.6321 17.1352 0.0321754 56.2182 0.0321754 96.3572L 0.0321754 157.62C 0.0321754 159.569 -0.907858 166.96 7.37214 166.96L 38.4821 166.96C 48.1521 166.96 47.2022 160.62 47.2022 158.012L 47.2022 58.9302C 52.4522 51.9562 63.1921 34.7302 80.6221 34.7302C 87.3121 34.7302 92.1289 36.9969 95.0722 41.5302C 98.0155 46.0635 99.4955 53.6636 99.5122 64.3302L 99.5122 141.717L 99.4722 141.717L 99.4722 157.617C 99.4722 159.566 98.5322 166.957 106.802 166.957L 137.522 166.957C 147.202 166.957 146.252 160.617 146.252 158.009L 146.252 155.875L 146.292 155.875L 146.292 58.9302C 151.922 51.9562 163.132 34.7302 179.702 34.7302C 186.522 34.7302 191.439 36.9969 194.452 41.5302C 197.466 46.0635 198.969 53.6636 198.962 64.3302L 198.962 141.717L 198.932 141.717L 198.932 157.617C 198.932 159.566 198.002 166.957 206.272 166.957L 237.392 166.957C 247.082 166.957 246.132 160.621 246.132 158.013L 246.132 158.017ZM 417.492 119.11C 406.422 148.903 379.922 165.553 347.092 165.553C 299.522 165.553 268.102 133.11 268.102 84.4532C 268.102 36.3812 300.712 1.5352 345.602 1.5352C 390.002 1.5352 419.792 32.4892 421.682 82.3502C 421.922 88.7212 420.062 94.3502 412.112 94.3502L 311.182 94.3502C 311.782 121.087 324.662 135.509 347.392 135.509C 361.252 135.509 369.472 129.525 376.622 117.798C 379.742 112.698 386.112 112.979 386.112 112.979L 412.102 112.979C 416.352 112.972 418.232 117.121 417.492 119.106L 417.492 119.11ZM 345.602 32.4702C 326.742 32.4702 313.582 45.6862 311.182 67.3262L 378.812 67.3262C 377.012 48.3942 366.832 32.4662 345.602 32.4662L 345.602 32.4702Z"/>
<path id="path2_fill" fill-rule="evenodd" d="M 176.262 31.0066C 172.472 24.9571 167.553 19.6945 161.772 15.5066C 155.993 11.4409 149.644 8.25334 142.932 6.04761C 135.481 3.61627 127.784 2.01522 119.982 1.27359C 111.056 0.395021 102.091 -0.029529 93.1218 0.0015844L 14.5018 0.0015844C 7.43179 0.0015844 0.0218076 4.6486 0.0218076 13.4136L 0.0218076 141.014C 9.98181 162.28 29.3818 184.857 51.4318 195.647L 51.4318 170.335C 51.4318 156.982 61.4818 153.998 65.6318 153.998L 88.8818 153.998C 120.902 153.998 145.338 147.268 162.192 133.808C 179.042 120.367 187.468 100.4 187.472 73.9076C 187.521 66.2537 186.634 58.6225 184.832 51.1836C 183.044 44.0524 180.152 37.2446 176.262 31.0066L 176.262 31.0066ZM 130.452 96.5376C 127.74 101.251 123.693 105.057 118.822 107.474C 113.542 109.996 107.838 111.509 102.002 111.935C 95.6518 112.502 89.0917 112.786 82.3217 112.787L 60.2318 112.787C 54.8318 112.787 51.4318 108.387 51.4318 101.887L 51.4318 49.7206C 51.4318 43.8706 55.2417 41.4156 59.8117 41.4156L 82.3217 41.4156C 89.6517 41.4156 96.5284 41.6276 102.952 42.0516C 108.729 42.3149 114.402 43.6861 119.662 46.0906C 124.355 48.3242 128.238 51.9618 130.772 56.4996C 133.452 61.1663 134.792 67.7496 134.792 76.2496C 134.792 84.8863 133.345 91.6489 130.452 96.5376L 130.452 96.5376ZM 51.4318 203.887C 27.1818 194.187 10.9218 182.611 0.0218076 171.136L 0.0218076 232.736C 0.0218076 232.736 -0.878198 242.782 8.8918 242.782L 43.1917 242.782C 52.5917 242.782 51.4318 232.736 51.4318 232.736L 51.4318 203.887L 51.4318 203.887ZM 537.482 67.1226L 506.702 67.1226C 500.442 67.1226 496.322 69.7546 493.842 76.6406C 491.342 83.5276 458.732 174.482 458.732 174.482C 458.732 174.482 427.522 85.4056 425.072 78.5086C 422.622 71.6116 418.582 67.1226 411.312 67.1226L 383.032 67.1226C 373.062 67.1226 373.062 74.9676 374.292 78.0786C 375.302 80.5926 414.032 186.857 428.782 227.335C 432.262 236.893 433.632 239.768 433.742 243.31C 433.852 246.852 430.252 254.285 427.772 258.55C 426.628 260.496 425.316 262.338 423.852 264.057C 452.772 255.39 486.102 223.941 503.342 189.87C 520.382 142.387 542.862 79.6636 543.832 76.4546C 545.402 71.2606 545.382 67.1226 537.482 67.1226ZM 401.572 273.096C 398.9 273.05 396.233 272.857 393.582 272.519C 390.332 272.088 384.262 272.695 384.262 278.019L 384.262 301.81C 384.262 310.888 388.602 311.494 390.982 312.032C 398.166 313.53 405.493 314.239 412.832 314.145C 422.552 314.145 431.012 312.374 438.212 308.833C 445.482 305.23 451.958 300.212 457.262 294.072C 463.111 287.233 468.052 279.667 471.962 271.563C 476.262 262.857 480.388 253.264 484.342 242.784C 484.342 242.784 486.032 238.05 488.822 230.292C 480.332 238.868 440.322 276.853 401.572 273.096ZM 355.342 95.3636C 353.674 91.3875 351.393 87.6974 348.582 84.4276C 345.784 81.2884 342.579 78.538 339.052 76.2496C 335.249 73.7718 331.213 71.6718 327.002 69.9796C 322.702 68.2978 318.279 66.9501 313.772 65.9486C 308.653 64.8258 303.459 64.0804 298.232 63.7186C 292.582 63.2979 286.232 63.0859 279.182 63.0826C 232.552 63.0826 206.002 77.8343 199.532 107.338C 197.422 116.494 206.472 117.032 206.472 117.032L 235.152 117.032C 242.642 117.032 242.322 114.616 245.952 107.832C 247.266 104.146 249.621 100.921 252.732 98.5486C 258.242 94.3033 266.495 92.1806 277.492 92.1806C 288.072 92.1806 295.759 94.2316 300.552 98.3336C 305.345 102.436 308.165 108.667 309.012 117.028C 309.012 126.722 305.992 133.188 294.292 133.188C 265.742 132.151 235.072 135.388 217.792 145.298C 200.512 155.208 190.752 174.598 190.752 195.412C 190.752 203.902 192.269 211.336 195.302 217.712C 198.24 223.962 202.583 229.449 207.992 233.745C 213.734 238.228 220.317 241.514 227.352 243.41C 235.345 245.603 243.604 246.677 251.892 246.599C 264.302 246.599 275.269 245.04 284.792 241.923C 294.312 238.812 309.042 228.551 310.922 227.054L 310.922 232.53C 310.922 237.949 312.562 242.781 319.022 242.781L 352.382 242.781C 359.132 242.781 360.632 237.949 360.632 232.001L 360.632 129.142C 360.688 122.748 360.267 116.359 359.372 110.028C 358.653 104.989 357.299 100.062 355.342 95.3636L 355.342 95.3636ZM 309.862 196.218C 309.862 196.218 301.252 214.129 270.512 214.129C 262.052 214.129 255.175 212.218 249.882 208.397C 244.588 204.575 241.942 198.628 241.942 190.554C 241.942 180.066 246.245 172.665 254.852 168.349C 263.452 164.035 280.672 161.57 293.572 161.873C 306.472 162.176 309.862 170.335 309.862 175.973L 309.862 196.222L 309.862 196.218Z"/>
</defs>
</svg>
