<?xml version="1.0" encoding="iso-8859-1"?>
<!-- Generator: Adobe Illustrator 16.0.0, SVG Export Plug-In . SVG Version: 6.00 Build 0)  -->
<!DOCTYPE svg PUBLIC "-//W3C//DTD SVG 1.1//EN" "http://www.w3.org/Graphics/SVG/1.1/DTD/svg11.dtd">
<svg xmlns="http://www.w3.org/2000/svg" xmlns:xlink="http://www.w3.org/1999/xlink" version="1.1" id="Capa_1" x="0px" y="0px" width="512px" height="512px" viewBox="0 0 31.255 31.255" style="enable-background:new 0 0 31.255 31.255;" xml:space="preserve">
<g>
	<path d="M28.315,0c-1.017,0-1.839,0.824-1.839,1.838v2.077c-0.059-0.012-0.11-0.035-0.171-0.035h-1.378V2.972   c0-0.711-0.574-1.287-1.285-1.287s-1.287,0.576-1.287,1.287v0.907H9.048V2.972c0-0.711-0.574-1.287-1.287-1.287   c-0.711,0-1.286,0.576-1.286,1.287v0.907H4.948c-0.061,0-0.112,0.023-0.17,0.035V1.838C4.778,0.824,3.955,0,2.939,0   S1.101,0.824,1.101,1.838v27.579c0,1.014,0.823,1.838,1.839,1.838s1.839-0.824,1.839-1.838V27.34   c0.058,0.012,0.109,0.034,0.17,0.034h13.495V28.4c0,0.711,0.575,1.287,1.286,1.287c0.712,0,1.288-0.576,1.288-1.287v-1.026h1.337   V28.4c0,0.711,0.576,1.287,1.287,1.287s1.285-0.576,1.285-1.287v-1.026h1.378c0.061,0,0.112-0.022,0.171-0.034v2.077   c0,1.014,0.822,1.838,1.839,1.838s1.839-0.824,1.839-1.838V1.838C30.153,0.824,29.33,0,28.315,0z M26.476,25.393   c-0.059-0.012-0.11-0.035-0.171-0.035h-1.378v-0.896c0-0.711-0.574-1.287-1.285-1.287s-1.287,0.576-1.287,1.287v0.896h-1.337   v-0.896c0-0.711-0.576-1.287-1.288-1.287c-0.711,0-1.286,0.576-1.286,1.287v0.896H4.948c-0.061,0-0.112,0.023-0.17,0.035V20.18   c0.058,0.01,0.109,0.034,0.17,0.034h1.526v1.155c0,0.711,0.575,1.285,1.286,1.285c0.713,0,1.287-0.574,1.287-1.285v-1.154h1.339   v1.156c0,0.709,0.576,1.285,1.285,1.285c0.712,0,1.289-0.576,1.289-1.285v-1.156h1.625v1.156c0,0.709,0.576,1.285,1.287,1.285   c0.712,0,1.288-0.576,1.288-1.285v-1.156h1.338v1.156c0,0.709,0.575,1.285,1.287,1.285c0.711,0,1.286-0.576,1.286-1.285v-1.156   h5.231c0.062,0,0.113-0.023,0.172-0.034v5.212H26.476z M26.476,18.232c-0.059-0.01-0.11-0.035-0.171-0.035h-5.232v-0.766   c0-0.709-0.575-1.287-1.286-1.287S18.5,16.723,18.5,17.432v0.766h-1.338v-0.766c0-0.709-0.576-1.287-1.288-1.287   c-0.711,0-1.287,0.578-1.287,1.287v0.766h-1.625v-0.766c0-0.709-0.577-1.287-1.289-1.287c-0.709,0-1.285,0.578-1.285,1.287v0.766   h-1.34v-0.766c0-0.709-0.574-1.287-1.287-1.287c-0.711,0-1.286,0.578-1.286,1.287v0.766H4.948c-0.061,0-0.112,0.025-0.17,0.035   V13.02c0.058,0.01,0.109,0.035,0.17,0.035h1.526v0.976c0,0.711,0.575,1.286,1.286,1.286c0.713,0,1.287-0.575,1.287-1.286v-0.976   h1.339v0.976c0,0.711,0.576,1.286,1.285,1.286c0.712,0,1.289-0.575,1.289-1.286v-0.976h13.344c0.061,0,0.113-0.025,0.171-0.035   L26.476,18.232L26.476,18.232z M26.476,11.073c-0.059-0.01-0.11-0.033-0.171-0.033H12.961v-0.946c0-0.71-0.577-1.287-1.289-1.287   c-0.709,0-1.285,0.577-1.285,1.287v0.946H9.048v-0.946c0-0.71-0.574-1.287-1.287-1.287c-0.711,0-1.286,0.577-1.286,1.287v0.946   H4.948c-0.061,0-0.112,0.023-0.17,0.033V5.861c0.058,0.011,0.109,0.035,0.17,0.035h1.526V6.91c0,0.711,0.575,1.286,1.286,1.286   c0.713,0,1.287-0.575,1.287-1.286V5.896h13.307V6.91c0,0.711,0.576,1.286,1.287,1.286s1.286-0.575,1.286-1.286V5.896h1.377   c0.061,0,0.113-0.024,0.171-0.035L26.476,11.073L26.476,11.073z" fill="#FFFFFF"/>
</g>
<g>
</g>
<g>
</g>
<g>
</g>
<g>
</g>
<g>
</g>
<g>
</g>
<g>
</g>
<g>
</g>
<g>
</g>
<g>
</g>
<g>
</g>
<g>
</g>
<g>
</g>
<g>
</g>
<g>
</g>
</svg>
